<?xml version="1.0" encoding="utf-8"?>
<!-- Generator: Adobe Illustrator 26.1.0, SVG Export Plug-In . SVG Version: 6.00 Build 0)  -->
<svg version="1.1" id="Layer_1" xmlns="http://www.w3.org/2000/svg" xmlns:xlink="http://www.w3.org/1999/xlink" x="0px" y="0px"
	 viewBox="0 0 512 512" style="enable-background:new 0 0 512 512;" xml:space="preserve">
<g>
	<g>
		<path d="M107.96,207.71c20.35-62.08,78.82-107.05,147.62-107.05s127.27,44.97,147.62,107.05h46.13
			C427.69,120.85,349.05,56.29,255.59,56.29S83.49,120.85,61.84,207.71H107.96z"/>
		<path d="M403.4,303.71c-20.18,62.39-78.8,107.64-147.81,107.64s-127.64-45.25-147.81-107.64H61.69
			c21.44,87.15,100.22,152,193.9,152s172.45-64.85,193.9-152H403.4z"/>
	</g>
	<polygon points="83,227.42 99.5,256 116,284.58 83,284.58 50,284.58 66.5,256 	"/>
	<rect x="412" y="225.11" width="34" height="61.78"/>
</g>
</svg>
